<?xml version="1.0" encoding="UTF-8"?>
<svg xmlns:xlink="http://www.w3.org/1999/xlink" width="21px" height="18px" viewBox="0 0 21 18" version="1.1" xmlns="http://www.w3.org/2000/svg">
    <!-- Generator: Sketch 43.2 (39069) - http://www.bohemiancoding.com/sketch -->
    <title>Extension Icon</title>
    <desc>Created with Sketch.</desc>
    <defs>
        <linearGradient x1="50%" y1="-2.48949813e-15%" x2="50%" y2="100%" id="linearGradient-1">
            <stop stop-color="#930068" offset="0%"></stop>
            <stop stop-color="#3D002B" offset="100%"></stop>
        </linearGradient>
    </defs>
    <g id="Page-1" stroke="none" stroke-width="1" fill="none" fill-rule="evenodd">
        <g id="Extension-Icon">
            <rect id="Rectangle-1" fill="url(#linearGradient-1)" x="0" y="0" width="21" height="18"></rect>
            <path d="M5.8923125,9.442125 L5.8923125,8.779125 L7.5221875,8.779125 C8.69625,8.779125 9.276375,7.9365625 9.276375,7.094 C9.276375,6.26525 8.69625,5.4226875 7.5221875,5.4226875 L5.38125,5.4226875 L5.38125,13.6825625 L4,13.6825625 L4,4.0138125 L7.5221875,4.0138125 C9.6216875,4.0138125 10.6714375,5.5608125 10.6714375,7.094 C10.6714375,8.4614375 9.828875,9.7598125 8.171375,10.049875 L11.2239375,13.6825625 L9.4145,13.6825625 L5.8923125,9.442125 Z M13.1576875,9.4835625 L13.1576875,8.171375 L14.608,8.171375 C15.574875,8.171375 15.934,7.37025 15.934,6.734875 C15.934,5.768 15.0085625,5.326 14.0969375,5.326 C13.364875,5.326 12.619,5.740375 12.4394375,6.48625 L11.1825,6.182375 C11.5278125,4.71825 12.812375,4 14.0969375,4 C15.65775,4 17.3014375,4.856375 17.31525,6.734875 C17.31525,7.4945625 17.1356875,8.281875 16.43125,8.7515 C17.3014375,9.2625625 17.6881875,10.049875 17.674375,11.0029375 C17.6605625,12.398 16.5003125,13.806875 14.1798125,13.806875 C12.1079375,13.806875 11.12725,12.6051875 10.90625,11.2791875 L12.204625,11.044375 C12.3289375,11.817875 12.9643125,12.5085 14.1798125,12.5085 C15.713,12.5085 16.43125,11.6659375 16.3621875,10.8648125 C16.3069375,10.2985 15.8649375,9.4835625 14.608,9.4835625 L13.1576875,9.4835625 Z" id="R3" fill="#FFFFFF"></path>
        </g>
    </g>
</svg>