<?xml version="1.0" encoding="UTF-8"?>
<svg width="22px" height="22px" viewBox="0 0 22 22" version="1.1" xmlns="http://www.w3.org/2000/svg">
    <!-- Generator: Sketch 43.2 (39069) - http://www.bohemiancoding.com/sketch -->
    <title>Extension Icon</title>
    <desc>Created with Sketch.</desc>
    <defs>
        <linearGradient x1="13.7812159%" y1="2.82942443%" x2="50%" y2="100%" id="linearGradient-1">
            <stop stop-color="#3E719A" offset="0%"></stop>
            <stop stop-color="#04365D" offset="100%"></stop>
        </linearGradient>
    </defs>
    <g id="Page-1" stroke="none" stroke-width="1" fill="none" fill-rule="evenodd">
        <g id="Extension-Icon">
            <rect id="Rectangle-1" fill="url(#linearGradient-1)" x="0" y="0" width="22" height="22"></rect>
            <path d="M2,15.5714286 L2,7 L10.5714286,7 L10.5714286,11.6714286 L6.67142857,11.6714286 L6.67142857,14.7914286 L10.5714286,14.7914286 L10.5714286,15.5714286 L5.9,15.5714286 L5.9,10.9 L9.79142857,10.9 L9.79142857,7.78 L2.78,7.78 L2.78,15.5714286 L2,15.5714286 Z M20,7.78 L12.2085714,7.78 L12.2085714,10.9 L20,10.9 L20,11.6714286 L12.2085714,11.6714286 L12.2085714,14.7914286 L20,14.7914286 L20,15.5714286 L11.4285714,15.5714286 L11.4285714,7 L20,7 L20,7.78 Z"
                  id="RE" fill="#FFFFFF"></path>
        </g>
    </g>
</svg>
